<mxfile host="app.diagrams.net" agent="Mozilla/5.0 (Windows NT 10.0; Win64; x64) AppleWebKit/537.36 (KHTML, like Gecko) Chrome/139.0.0.0 Safari/537.36" version="28.1.1">
  <diagram name="페이지-1" id="0dxawpgwa3V5kVXZLIHY">
    <mxGraphModel dx="1426" dy="743" grid="1" gridSize="10" guides="1" tooltips="1" connect="1" arrows="1" fold="1" page="1" pageScale="1" pageWidth="827" pageHeight="1169" math="0" shadow="0">
      <root>
        <mxCell id="0" />
        <mxCell id="1" parent="0" />
        <mxCell id="vLmJBGW6A9p-T7zwAkiO-1" value="고객" style="whiteSpace=wrap;html=1;align=center;" parent="1" vertex="1">
          <mxGeometry x="180" y="110" width="100" height="40" as="geometry" />
        </mxCell>
        <mxCell id="vLmJBGW6A9p-T7zwAkiO-2" value="고객명" style="ellipse;whiteSpace=wrap;html=1;align=center;" parent="1" vertex="1">
          <mxGeometry x="50" y="50" width="100" height="40" as="geometry" />
        </mxCell>
        <mxCell id="w4M2kPeQPFyu2rTOLgIa-3" value="" style="endArrow=none;html=1;rounded=0;" edge="1" parent="1" source="vLmJBGW6A9p-T7zwAkiO-2" target="vLmJBGW6A9p-T7zwAkiO-1">
          <mxGeometry relative="1" as="geometry">
            <mxPoint x="290" y="280" as="sourcePoint" />
            <mxPoint x="450" y="280" as="targetPoint" />
          </mxGeometry>
        </mxCell>
        <mxCell id="w4M2kPeQPFyu2rTOLgIa-4" value="" style="endArrow=none;html=1;rounded=0;" edge="1" parent="1" source="w4M2kPeQPFyu2rTOLgIa-5" target="vLmJBGW6A9p-T7zwAkiO-1">
          <mxGeometry relative="1" as="geometry">
            <mxPoint x="290" y="70" as="sourcePoint" />
            <mxPoint x="310" y="130" as="targetPoint" />
          </mxGeometry>
        </mxCell>
        <mxCell id="w4M2kPeQPFyu2rTOLgIa-5" value="전화번호" style="ellipse;whiteSpace=wrap;html=1;align=center;fontStyle=4;" vertex="1" parent="1">
          <mxGeometry x="170" y="20" width="100" height="40" as="geometry" />
        </mxCell>
        <mxCell id="w4M2kPeQPFyu2rTOLgIa-7" value="이메일" style="ellipse;whiteSpace=wrap;html=1;align=center;fontStyle=4;" vertex="1" parent="1">
          <mxGeometry x="280" y="30" width="100" height="40" as="geometry" />
        </mxCell>
        <mxCell id="w4M2kPeQPFyu2rTOLgIa-8" value="" style="endArrow=none;html=1;rounded=0;" edge="1" parent="1" source="w4M2kPeQPFyu2rTOLgIa-7" target="vLmJBGW6A9p-T7zwAkiO-1">
          <mxGeometry relative="1" as="geometry">
            <mxPoint x="260" y="90" as="sourcePoint" />
            <mxPoint x="263" y="140" as="targetPoint" />
          </mxGeometry>
        </mxCell>
        <mxCell id="w4M2kPeQPFyu2rTOLgIa-9" value="고객코드" style="ellipse;whiteSpace=wrap;html=1;align=center;fontStyle=4;" vertex="1" parent="1">
          <mxGeometry x="20" y="110" width="100" height="40" as="geometry" />
        </mxCell>
        <mxCell id="w4M2kPeQPFyu2rTOLgIa-10" value="" style="endArrow=none;html=1;rounded=0;" edge="1" parent="1" source="w4M2kPeQPFyu2rTOLgIa-9" target="vLmJBGW6A9p-T7zwAkiO-1">
          <mxGeometry relative="1" as="geometry">
            <mxPoint x="190" y="130" as="sourcePoint" />
            <mxPoint x="244" y="155" as="targetPoint" />
          </mxGeometry>
        </mxCell>
        <mxCell id="w4M2kPeQPFyu2rTOLgIa-12" value="주소" style="ellipse;shape=doubleEllipse;margin=3;whiteSpace=wrap;html=1;align=center;" vertex="1" parent="1">
          <mxGeometry x="320" y="110" width="100" height="40" as="geometry" />
        </mxCell>
        <mxCell id="w4M2kPeQPFyu2rTOLgIa-13" value="" style="endArrow=none;html=1;rounded=0;" edge="1" parent="1" source="w4M2kPeQPFyu2rTOLgIa-12" target="vLmJBGW6A9p-T7zwAkiO-1">
          <mxGeometry relative="1" as="geometry">
            <mxPoint x="343" y="110" as="sourcePoint" />
            <mxPoint x="290" y="152" as="targetPoint" />
          </mxGeometry>
        </mxCell>
        <mxCell id="w4M2kPeQPFyu2rTOLgIa-14" value="기본주소" style="ellipse;whiteSpace=wrap;html=1;align=center;" vertex="1" parent="1">
          <mxGeometry x="430" y="70" width="100" height="40" as="geometry" />
        </mxCell>
        <mxCell id="w4M2kPeQPFyu2rTOLgIa-15" value="상세주소" style="ellipse;whiteSpace=wrap;html=1;align=center;" vertex="1" parent="1">
          <mxGeometry x="430" y="140" width="100" height="40" as="geometry" />
        </mxCell>
        <mxCell id="w4M2kPeQPFyu2rTOLgIa-17" value="" style="endArrow=none;html=1;rounded=0;" edge="1" parent="1" source="w4M2kPeQPFyu2rTOLgIa-14" target="w4M2kPeQPFyu2rTOLgIa-12">
          <mxGeometry relative="1" as="geometry">
            <mxPoint x="343" y="110" as="sourcePoint" />
            <mxPoint x="360" y="120" as="targetPoint" />
          </mxGeometry>
        </mxCell>
        <mxCell id="w4M2kPeQPFyu2rTOLgIa-18" value="" style="endArrow=none;html=1;rounded=0;" edge="1" parent="1" source="w4M2kPeQPFyu2rTOLgIa-15" target="w4M2kPeQPFyu2rTOLgIa-12">
          <mxGeometry relative="1" as="geometry">
            <mxPoint x="446" y="170" as="sourcePoint" />
            <mxPoint x="410" y="184" as="targetPoint" />
          </mxGeometry>
        </mxCell>
        <mxCell id="w4M2kPeQPFyu2rTOLgIa-19" value="가입일" style="ellipse;whiteSpace=wrap;html=1;align=center;" vertex="1" parent="1">
          <mxGeometry x="90" y="180" width="100" height="40" as="geometry" />
        </mxCell>
        <mxCell id="w4M2kPeQPFyu2rTOLgIa-20" value="" style="endArrow=none;html=1;rounded=0;" edge="1" parent="1" source="w4M2kPeQPFyu2rTOLgIa-19" target="vLmJBGW6A9p-T7zwAkiO-1">
          <mxGeometry relative="1" as="geometry">
            <mxPoint x="170" y="120" as="sourcePoint" />
            <mxPoint x="224" y="145" as="targetPoint" />
          </mxGeometry>
        </mxCell>
        <mxCell id="w4M2kPeQPFyu2rTOLgIa-25" value="지역" style="ellipse;whiteSpace=wrap;html=1;align=center;" vertex="1" parent="1">
          <mxGeometry x="210" y="190" width="100" height="40" as="geometry" />
        </mxCell>
        <mxCell id="w4M2kPeQPFyu2rTOLgIa-26" value="" style="endArrow=none;html=1;rounded=0;" edge="1" parent="1" source="w4M2kPeQPFyu2rTOLgIa-25" target="vLmJBGW6A9p-T7zwAkiO-1">
          <mxGeometry relative="1" as="geometry">
            <mxPoint x="180" y="212" as="sourcePoint" />
            <mxPoint x="221" y="180" as="targetPoint" />
          </mxGeometry>
        </mxCell>
      </root>
    </mxGraphModel>
  </diagram>
</mxfile>
